#usda 1.0
(
    customLayerData = {
        string charger_source = "test_lavender_farming.public.charging_stations @ 2026-10-08T12:36:21"
        dictionary charging_stations = {
            dictionary charger_1 = {
                int apriltag_id = 1
                double x = -9.654
                double y = -1.972
                double yaw_deg = 0
            }
        }
        string farm_file = "lavender_farm.usd"
        string farm_source = "test_lavender_farming.public.object_data @ 2026-10-09T12:20:28"
        double4[] lavender_rows = [(-0.20700000000000002, 17.213, -4.040815789473684, 0.99), (-0.638, 17.166, -5.860078947368421, 0.99), (-0.6699999999999999, 17.228, -7.709105263157896, 0.99), (-0.589, 17.251, -9.44778947368421, 0.99), (-0.665, 17.191000000000003, -11.289315789473685, 0.99), (-0.589, 17.198, -13.108315789473684, 0.99), (-0.627, 17.198, -15.006342105263158, 0.99), (-0.572, 17.139, -16.79186842105263, 0.99), (-0.598, 17.189, -18.615184210526316, 0.99), (-0.581, 17.285, -20.4505, 0.99)]
        int plant_count = 380
    }
    defaultPrim = "World"
    doc = "lavender_farm.usd plus its charging stations, written by scripts/make_charger_scene.py from public.charging_stations; don't edit, rerun it."
    metersPerUnit = 1
    subLayers = [
        @./lavender_farm.usd@
    ]
    upAxis = "Z"
)

over "World"
{
    def Xform "charging_stations"
    {
        def Xform "charger_1" (
            customData = {
                int apriltag_id = 1
                int charging_station_id = 1
            }
        )
        {
            float xformOp:rotateZ = 90
            double3 xformOp:translate = (-9.654, -1.972, 0)
            uniform token[] xformOpOrder = ["xformOp:translate", "xformOp:rotateZ"]

            def Xform "asset" (
                prepend references = @../assets/wibotic_tr302_edge/wibotic_tr302_edge.usd@
                variants = {
                    string AprilTag_ID = "id_001"
                }
            )
            {
            }
        }
    }
}

