#usda 1.0
(
    defaultPrim = "Worker"
    doc = "WiBotic farm scene worker: woman, 53, tee, cargo pants, work boots and her own work gloves (body: NVIDIA DH character 68334871-06f4-11ef-bf88-f4b30194174e)"
    metersPerUnit = 1
    upAxis = "Z"
)

def Xform "Worker" (
    prepend apiSchemas = ["PhysicsRigidBodyAPI"]
    kind = "component"
)
{
    custom string farm:description = "woman, 53, tee, cargo pants, work boots and her own work gloves"
    custom double farm:seatHeight = 0.49806560516357423
    custom double farm:seatOffsetY = 0.4395622301101685
    custom string farm:workerName = "farm_worker_02"
    bool physics:kinematicEnabled = 1
    float xformOp:rotateZ = 0
    double3 xformOp:translate = (0, 0, 0)
    uniform token[] xformOpOrder = ["xformOp:translate", "xformOp:rotateZ"]

    def Xform "Body" (
        prepend references = @https://omniverse-content-production.s3-us-west-2.amazonaws.com/Assets/Isaac/6.0/Isaac/People/DH_Characters/68334871-06f4-11ef-bf88-f4b30194174e/68334871-06f4-11ef-bf88-f4b30194174e.usd@
    )
    {
        def "DHGen"
        {
            def "SkelRoot"
            {
                over "Accessories"
                {
                    over "Eyewear" (
                        active = false
                    )
                    {
                    }
                }

                over "Outfit"
                {
                    over "gar_unisex_vest_highVis_ves003_model_published" (
                        active = false
                    )
                    {
                    }
                }

                def "Skeleton" (
                    prepend apiSchemas = ["SkelBindingAPI"]
                )
                {
                    rel skel:animationSource = </Worker/Body/DHGen/SkelRoot/Skeleton/FarmPose>

                    over "BehaviorAgentOutputPose" (
                        active = false
                    )
                    {
                    }

                    def SkelAnimation "FarmPose"
                    {
                        uniform token[] blendShapes = ["jawOpen", "mouthClose", "mouthFunnel", "mouthPucker", "mouthStretch_L", "mouthStretch_R", "mouthSmile_L", "mouthSmile_R", "mouthLowerDown_L", "mouthLowerDown_R", "mouthUpperUp_L", "mouthUpperUp_R", "browInnerUp_L", "browInnerUp_R", "eyeBlink_L", "eyeBlink_R"]
                        float[] blendShapeWeights = [0, 0, 0, 0, 0, 0, 0, 0, 0, 0, 0, 0, 0, 0, 0, 0]
                        uniform token[] joints = ["Root", "Root/Hips", "Root/Hips/Spine1", "Root/Hips/Spine1/Spine2", "Root/Hips/Spine1/Spine2/Chest", "Root/Hips/Spine1/Spine2/Chest/Neck1", "Root/Hips/Spine1/Spine2/Chest/Neck1/Neck2", "Root/Hips/Spine1/Spine2/Chest/Neck1/Neck2/Head", "Root/Hips/Spine1/Spine2/Chest/Neck1/Neck2/Head/HeadEnd", "Root/Hips/Spine1/Spine2/Chest/Neck1/Neck2/Head/Jaw", "Root/Hips/Spine1/Spine2/Chest/Neck1/Neck2/Head/LeftEye", "Root/Hips/Spine1/Spine2/Chest/Neck1/Neck2/Head/RightEye", "Root/Hips/Spine1/Spine2/Chest/LeftShoulder", "Root/Hips/Spine1/Spine2/Chest/LeftShoulder/LeftArm", "Root/Hips/Spine1/Spine2/Chest/LeftShoulder/LeftArm/LeftForeArm", "Root/Hips/Spine1/Spine2/Chest/LeftShoulder/LeftArm/LeftForeArm/LeftHand", "Root/Hips/Spine1/Spine2/Chest/LeftShoulder/LeftArm/LeftForeArm/LeftHand/LeftHandThumb1", "Root/Hips/Spine1/Spine2/Chest/LeftShoulder/LeftArm/LeftForeArm/LeftHand/LeftHandThumb1/LeftHandThumb2", "Root/Hips/Spine1/Spine2/Chest/LeftShoulder/LeftArm/LeftForeArm/LeftHand/LeftHandThumb1/LeftHandThumb2/LeftHandThumb3", "Root/Hips/Spine1/Spine2/Chest/LeftShoulder/LeftArm/LeftForeArm/LeftHand/LeftHandThumb1/LeftHandThumb2/LeftHandThumb3/LeftHandThumbEnd", "Root/Hips/Spine1/Spine2/Chest/LeftShoulder/LeftArm/LeftForeArm/LeftHand/LeftHandIndex1", "Root/Hips/Spine1/Spine2/Chest/LeftShoulder/LeftArm/LeftForeArm/LeftHand/LeftHandIndex1/LeftHandIndex2", "Root/Hips/Spine1/Spine2/Chest/LeftShoulder/LeftArm/LeftForeArm/LeftHand/LeftHandIndex1/LeftHandIndex2/LeftHandIndex3", "Root/Hips/Spine1/Spine2/Chest/LeftShoulder/LeftArm/LeftForeArm/LeftHand/LeftHandIndex1/LeftHandIndex2/LeftHandIndex3/LeftHandIndex4", "Root/Hips/Spine1/Spine2/Chest/LeftShoulder/LeftArm/LeftForeArm/LeftHand/LeftHandIndex1/LeftHandIndex2/LeftHandIndex3/LeftHandIndex4/LeftHandIndexEnd", "Root/Hips/Spine1/Spine2/Chest/LeftShoulder/LeftArm/LeftForeArm/LeftHand/LeftHandMiddle1", "Root/Hips/Spine1/Spine2/Chest/LeftShoulder/LeftArm/LeftForeArm/LeftHand/LeftHandMiddle1/LeftHandMiddle2", "Root/Hips/Spine1/Spine2/Chest/LeftShoulder/LeftArm/LeftForeArm/LeftHand/LeftHandMiddle1/LeftHandMiddle2/LeftHandMiddle3", "Root/Hips/Spine1/Spine2/Chest/LeftShoulder/LeftArm/LeftForeArm/LeftHand/LeftHandMiddle1/LeftHandMiddle2/LeftHandMiddle3/LeftHandMiddle4", "Root/Hips/Spine1/Spine2/Chest/LeftShoulder/LeftArm/LeftForeArm/LeftHand/LeftHandMiddle1/LeftHandMiddle2/LeftHandMiddle3/LeftHandMiddle4/LeftHandMiddleEnd", "Root/Hips/Spine1/Spine2/Chest/LeftShoulder/LeftArm/LeftForeArm/LeftHand/LeftHandRing1", "Root/Hips/Spine1/Spine2/Chest/LeftShoulder/LeftArm/LeftForeArm/LeftHand/LeftHandRing1/LeftHandRing2", "Root/Hips/Spine1/Spine2/Chest/LeftShoulder/LeftArm/LeftForeArm/LeftHand/LeftHandRing1/LeftHandRing2/LeftHandRing3", "Root/Hips/Spine1/Spine2/Chest/LeftShoulder/LeftArm/LeftForeArm/LeftHand/LeftHandRing1/LeftHandRing2/LeftHandRing3/LeftHandRing4", "Root/Hips/Spine1/Spine2/Chest/LeftShoulder/LeftArm/LeftForeArm/LeftHand/LeftHandRing1/LeftHandRing2/LeftHandRing3/LeftHandRing4/LeftHandRingEnd", "Root/Hips/Spine1/Spine2/Chest/LeftShoulder/LeftArm/LeftForeArm/LeftHand/LeftHandPinky1", "Root/Hips/Spine1/Spine2/Chest/LeftShoulder/LeftArm/LeftForeArm/LeftHand/LeftHandPinky1/LeftHandPinky2", "Root/Hips/Spine1/Spine2/Chest/LeftShoulder/LeftArm/LeftForeArm/LeftHand/LeftHandPinky1/LeftHandPinky2/LeftHandPinky3", "Root/Hips/Spine1/Spine2/Chest/LeftShoulder/LeftArm/LeftForeArm/LeftHand/LeftHandPinky1/LeftHandPinky2/LeftHandPinky3/LeftHandPinky4", "Root/Hips/Spine1/Spine2/Chest/LeftShoulder/LeftArm/LeftForeArm/LeftHand/LeftHandPinky1/LeftHandPinky2/LeftHandPinky3/LeftHandPinky4/LeftHandPinkyEnd", "Root/Hips/Spine1/Spine2/Chest/RightShoulder", "Root/Hips/Spine1/Spine2/Chest/RightShoulder/RightArm", "Root/Hips/Spine1/Spine2/Chest/RightShoulder/RightArm/RightForeArm", "Root/Hips/Spine1/Spine2/Chest/RightShoulder/RightArm/RightForeArm/RightHand", "Root/Hips/Spine1/Spine2/Chest/RightShoulder/RightArm/RightForeArm/RightHand/RightHandThumb1", "Root/Hips/Spine1/Spine2/Chest/RightShoulder/RightArm/RightForeArm/RightHand/RightHandThumb1/RightHandThumb2", "Root/Hips/Spine1/Spine2/Chest/RightShoulder/RightArm/RightForeArm/RightHand/RightHandThumb1/RightHandThumb2/RightHandThumb3", "Root/Hips/Spine1/Spine2/Chest/RightShoulder/RightArm/RightForeArm/RightHand/RightHandThumb1/RightHandThumb2/RightHandThumb3/RightHandThumbEnd", "Root/Hips/Spine1/Spine2/Chest/RightShoulder/RightArm/RightForeArm/RightHand/RightHandIndex1", "Root/Hips/Spine1/Spine2/Chest/RightShoulder/RightArm/RightForeArm/RightHand/RightHandIndex1/RightHandIndex2", "Root/Hips/Spine1/Spine2/Chest/RightShoulder/RightArm/RightForeArm/RightHand/RightHandIndex1/RightHandIndex2/RightHandIndex3", "Root/Hips/Spine1/Spine2/Chest/RightShoulder/RightArm/RightForeArm/RightHand/RightHandIndex1/RightHandIndex2/RightHandIndex3/RightHandIndex4", "Root/Hips/Spine1/Spine2/Chest/RightShoulder/RightArm/RightForeArm/RightHand/RightHandIndex1/RightHandIndex2/RightHandIndex3/RightHandIndex4/RightHandIndexEnd", "Root/Hips/Spine1/Spine2/Chest/RightShoulder/RightArm/RightForeArm/RightHand/RightHandMiddle1", "Root/Hips/Spine1/Spine2/Chest/RightShoulder/RightArm/RightForeArm/RightHand/RightHandMiddle1/RightHandMiddle2", "Root/Hips/Spine1/Spine2/Chest/RightShoulder/RightArm/RightForeArm/RightHand/RightHandMiddle1/RightHandMiddle2/RightHandMiddle3", "Root/Hips/Spine1/Spine2/Chest/RightShoulder/RightArm/RightForeArm/RightHand/RightHandMiddle1/RightHandMiddle2/RightHandMiddle3/RightHandMiddle4", "Root/Hips/Spine1/Spine2/Chest/RightShoulder/RightArm/RightForeArm/RightHand/RightHandMiddle1/RightHandMiddle2/RightHandMiddle3/RightHandMiddle4/RightHandMiddleEnd", "Root/Hips/Spine1/Spine2/Chest/RightShoulder/RightArm/RightForeArm/RightHand/RightHandRing1", "Root/Hips/Spine1/Spine2/Chest/RightShoulder/RightArm/RightForeArm/RightHand/RightHandRing1/RightHandRing2", "Root/Hips/Spine1/Spine2/Chest/RightShoulder/RightArm/RightForeArm/RightHand/RightHandRing1/RightHandRing2/RightHandRing3", "Root/Hips/Spine1/Spine2/Chest/RightShoulder/RightArm/RightForeArm/RightHand/RightHandRing1/RightHandRing2/RightHandRing3/RightHandRing4", "Root/Hips/Spine1/Spine2/Chest/RightShoulder/RightArm/RightForeArm/RightHand/RightHandRing1/RightHandRing2/RightHandRing3/RightHandRing4/RightHandRingEnd", "Root/Hips/Spine1/Spine2/Chest/RightShoulder/RightArm/RightForeArm/RightHand/RightHandPinky1", "Root/Hips/Spine1/Spine2/Chest/RightShoulder/RightArm/RightForeArm/RightHand/RightHandPinky1/RightHandPinky2", "Root/Hips/Spine1/Spine2/Chest/RightShoulder/RightArm/RightForeArm/RightHand/RightHandPinky1/RightHandPinky2/RightHandPinky3", "Root/Hips/Spine1/Spine2/Chest/RightShoulder/RightArm/RightForeArm/RightHand/RightHandPinky1/RightHandPinky2/RightHandPinky3/RightHandPinky4", "Root/Hips/Spine1/Spine2/Chest/RightShoulder/RightArm/RightForeArm/RightHand/RightHandPinky1/RightHandPinky2/RightHandPinky3/RightHandPinky4/RightHandPinkyEnd", "Root/Hips/LeftLeg", "Root/Hips/LeftLeg/LeftShin", "Root/Hips/LeftLeg/LeftShin/LeftFoot", "Root/Hips/LeftLeg/LeftShin/LeftFoot/LeftToeBase", "Root/Hips/LeftLeg/LeftShin/LeftFoot/LeftToeBase/LeftToeEnd", "Root/Hips/RightLeg", "Root/Hips/RightLeg/RightShin", "Root/Hips/RightLeg/RightShin/RightFoot", "Root/Hips/RightLeg/RightShin/RightFoot/RightToeBase", "Root/Hips/RightLeg/RightShin/RightFoot/RightToeBase/RightToeEnd"]
                        quatf[] rotations = [(1, 0, 0, 0), (0.0007473344, 0.707071, 0.0007474285, 0.70714176), (0.9928832, 0.0000059345725, -0.00004965246, -0.119092), (1, -3.815625e-9, -3.8380552e-10, -0.000068883164), (0.991387, -1.9212787e-9, -3.874502e-9, 0.13096492), (0.9850537, 1.0396283e-9, -4.6156035e-9, 0.17224756), (1, 9.070559e-10, -2.8429903e-10, -0.000010674591), (0.986243, 3.517842e-17, 2.9643506e-16, -0.16530193), (1, 0, 0, 0), (1, 0, 0, 0), (0.9878599, 0.026782887, 0.004147188, 0.15296498), (0.15296994, 0.004147348, -0.026783004, -0.98785913), (0.69991994, 0.15331508, -0.6950198, -0.05961546), (0.71015346, 0.08197583, -0.67501575, 0.18252604), (0.8990236, 0.14566304, -0.020235043, 0.41246748), (0.9303063, 0.32860968, 0.103734285, 0.1256387), (0.77306896, 0.46617904, 0.17443517, 0.39320967), (0.96733594, 1.5347192e-8, -0.20558125, -0.14831571), (0.9770873, 6.3207355e-9, -0.21264163, -0.009161879), (1, 1.3877788e-17, 2.7755576e-17, -1.3877788e-17), (0.9828425, -0.0132013485, 0.18198001, -0.027011504), (0.9861847, -0.00054114807, -0.15459493, -0.059496596), (0.98198795, -0.002120601, -0.17794792, -0.06347994), (0.88052833, 0.0036509559, -0.471465, -0.04875777), (1, -1.9368096e-7, -7.2164555e-16, 2.9420908e-15), (0.9758765, 0.0057463157, 0.20402376, -0.07750068), (0.9720934, -0.00069898093, -0.22969003, -0.047712058), (0.9856559, 0.000020087657, -0.16869612, 0.0049018986), (0.87971294, -0.0029196923, -0.47549367, 0.0015411613), (1, 0, -1.110223e-16, 6.162976e-33), (0.96643794, -0.12333917, 0.19257368, -0.11704914), (0.976363, 0.14047094, -0.16398019, -0.009680568), (0.9815083, -0.00014800241, -0.18939412, 0.027770856), (0.86413217, 0.00669822, -0.49355134, 0.098172076), (1, 1.8735014e-16, -1.5265567e-16, -8.326673e-17), (0.97226894, -0.10030144, 0.16334763, -0.13397859), (0.9825574, 0.1278233, -0.13486296, 0.007354174), (0.98696053, -0.000985646, -0.15931103, 0.02297626), (0.87638664, -0.007524888, -0.4633595, 0.13110203), (1, 0, 6.938894e-17, -5.551115e-17), (0.069920614, 0.6999657, 0.14780232, 0.6952076), (0.66811603, 0.0069408254, -0.713466, 0.21104287), (0.9478887, 0.06284504, -0.0012553418, 0.31233957), (0.7831829, 0.5789742, -0.024467025, 0.22542128), (0.7737207, 0.4665914, 0.173941, 0.3916546), (0.8766608, -0.015149517, -0.42099577, -0.23237647), (0.98590344, -0.0007098693, -0.16726753, -0.003930797), (1, -9.7144515e-17, 1.6653345e-16, -1.110223e-16), (0.9827315, -0.013244315, 0.18231912, -0.028690338), (0.98050153, -0.0018776265, -0.18607889, -0.06314925), (0.9903329, 0.00033369302, -0.1257421, -0.058562182), (0.97477615, 0.0010073344, -0.22249892, -0.017455062), (1, -1.9368096e-7, -1.1917692e-12, 1.7238431e-12), (0.97567457, 0.0057723173, 0.20434545, -0.07917514), (0.9641938, -0.0023434532, -0.26093128, -0.047325082), (0.9932304, -0.0000031298716, -0.11610944, 0.0034615842), (0.974404, -0.00080561906, -0.22476953, -0.0038521418), (1, 1.4901161e-8, 1.24067415e-14, -7.319145e-14), (0.9661423, -0.12322401, 0.19313467, -0.118675575), (0.97066265, 0.13924256, -0.19581148, -0.00913414), (0.9902985, 0.000023238299, -0.13761322, 0.01927249), (0.9666843, 0.0018481996, -0.2489846, 0.059369545), (1, -5.551115e-17, 1.540744e-33, -2.7755576e-17), (0.97198576, -0.10004064, 0.16379623, -0.13566995), (0.9778352, 0.12663485, -0.16621059, 0.013266889), (0.9940417, 0.00015510159, -0.10866186, 0.008583915), (0.97271454, -0.0020763394, -0.22605622, 0.05216066), (1, 1.4224733e-16, 1.6653345e-16, -1.110223e-16), (-0.65350765, -0.0032339452, 0.000028450704, -0.756913), (0.75172037, -0.0012168936, -0.010999968, 0.6593891), (0.82852566, 0.03348162, -0.022569986, -0.5584933), (0.99975055, 0.0072656944, 0.020473123, -0.0051852227), (1, 0, 0, 0), (0.7569127, 0.00003480563, -0.003307747, -0.6535076), (0.7517205, -0.0012202817, -0.01100281, 0.65938896), (0.8285259, 0.03348223, -0.022569101, -0.558493), (0.99975055, 0.0072656944, 0.020473123, -0.0051852227), (1, 0, 0, 0)]
                        half3[] scales = [(1, 1, 1), (1, 1, 1), (1, 1, 1), (1, 1, 1), (1, 1, 1), (1, 1, 1), (1, 1, 1), (1, 1, 1), (1, 1, 1), (1, 1, 1), (1, 1, 1), (1, 1, 1), (1, 1, 1), (1, 1, 1), (1, 1, 1), (1, 1, 1), (1, 1, 1), (1, 1, 1), (1, 1, 1), (1, 1, 1), (1, 1, 1), (1, 1, 1), (1, 1, 1), (1, 1, 1), (1, 1, 1), (1, 1, 1), (1, 1, 1), (1, 1, 1), (1, 1, 1), (1, 1, 1), (1, 1, 1), (1, 1, 1), (1, 1, 1), (1, 1, 1), (1, 1, 1), (1, 1, 1), (1, 1, 1), (1, 1, 1), (1, 1, 1), (1, 1, 1), (1, 1, 1), (1, 1, 1), (1, 1, 1), (1, 1, 1), (1, 1, 1), (1, 1, 1), (1, 1, 1), (1, 1, 1), (1, 1, 1), (1, 1, 1), (1, 1, 1), (1, 1, 1), (1, 1, 1), (1, 1, 1), (1, 1, 1), (1, 1, 1), (1, 1, 1), (1, 1, 1), (1, 1, 1), (1, 1, 1), (1, 1, 1), (1, 1, 1), (1, 1, 1), (1, 1, 1), (1, 1, 1), (1, 1, 1), (1, 1, 1), (1, 1, 1), (1, 1, 1), (1, 1, 1), (1, 1, 1), (1, 1, 1), (1, 1, 1), (1, 1, 1), (1, 1, 1), (1, 1, 1), (1, 1, 1), (1, 1, 1)]
                        float3[] translations = [(0, 0, 0), (-3.53939e-16, 0.40956223, 0.6080656), (0.046328172, 0.0082750395, 0.0000046324312), (0.06664934, 1.7347235e-18, -1.1099344e-17), (0.06733966, 0, -7.476204e-18), (0.22317639, 2.7755576e-17, -2.4777555e-17), (0.07173833, -5.551115e-17, -9.955694e-18), (0.06411247, -7.105427e-17, -8.897393e-18), (0.15083826, -7.105427e-17, -2.5119616e-17), (0.0016079365, 0.030088155, 3.072681e-18), (0.031355217, 0.07944061, 0.030052055), (0.030690156, 0.080414146, -0.028914426), (0.19233601, 0.04575445, 0.066952616), (0.1332268, 1.3877788e-17, 8.604516e-9), (0.24742346, -9.213714e-10, 4.923858e-8), (0.23224054, -6.591949e-17, -2.220446e-16), (0.015641622, 0.023485625, 0.004073405), (0.035137843, -4.440892e-16, -1.110223e-16), (0.022581989, 0, -1.6653345e-16), (0.02422115, 0, 0), (0.024782706, 0.016958855, -0.0014160562), (0.050010033, -8.326673e-17, 0), (0.030148413, 8.326673e-17, 2.220446e-16), (0.017880416, 0, 0), (0.022277176, 0, 0), (0.024303574, 0.007093883, -0.0047720475), (0.047351763, -5.551115e-17, -4.440892e-16), (0.036519498, -5.551115e-17, 0), (0.023662642, -8.326673e-17, -4.440892e-16), (0.019556236, -7.105427e-17, 0), (0.022028651, -0.0027331037, -0.000080402584), (0.04390903, 5.551115e-17, 0), (0.0356251, -5.551115e-17, -2.220446e-16), (0.022446208, 2.7755576e-17, 2.220446e-16), (0.016920323, 0, 0), (0.020345196, -0.012623202, 0.0039989077), (0.038973764, 0, 0), (0.025662743, -2.7755576e-17, -2.220446e-16), (0.015081086, 0, 0), (0.017718777, 0, -7.105427e-17), (0.19211273, 0.045328304, -0.06622838), (-0.13368757, -5.2347016e-14, 2.3641661e-8), (-0.24763077, 8.445769e-10, 2.4816247e-9), (-0.23170528, -6.2450045e-17, -2.220446e-16), (-0.015989179, -0.024413416, -0.004074), (-0.03456589, 2.220446e-16, 1.110223e-16), (-0.022538979, 0, -1.110223e-16), (-0.023978755, 0, 1.4210854e-16), (-0.024949893, -0.017201746, 0.0013154462), (-0.050722733, 2.7755576e-17, 0), (-0.029505907, -2.7755576e-17, -2.220446e-16), (-0.017932046, 2.7755576e-17, 0), (-0.022078188, 0, 0), (-0.024434006, -0.0070437337, 0.004814737), (-0.047778063, 0, -2.220446e-16), (-0.036651947, -2.7755576e-17, 2.220446e-16), (-0.023396974, 5.551115e-17, 0), (-0.019789882, -7.105427e-17, 0), (-0.022153165, 0.0027526887, -0.000013247258), (-0.044177428, -5.551115e-17, 0), (-0.035940792, 2.7755576e-17, 0), (-0.022615613, -5.551115e-17, 0), (-0.017744118, 0, 0), (-0.020621045, 0.012613701, -0.0043112864), (-0.039114345, -2.7755576e-17, -2.220446e-16), (-0.025791962, 0, -2.220446e-16), (-0.014909561, 5.551115e-17, 0), (-0.017759716, -3.5527136e-17, 0), (-0.07364348, 0.0010486611, 0.1111575), (0.39063647, 3.5811352e-12, -5.5928034e-8), (0.39618087, 0, 4.1633363e-17), (0.12712824, 4.440892e-18, 1.7763568e-17), (0.057823256, 8.881784e-18, 1.7763568e-17), (-0.07306735, 0.0007633442, -0.11079956), (-0.39182028, -1.6314061e-11, 5.9604645e-8), (-0.39633697, -1.2424957e-16, 5.551115e-17), (-0.12794231, 3.1086245e-17, -1.7763568e-17), (-0.058517918, 8.881784e-18, 0)]
                    }
                }

                def Xform "FarmGear" (
                    prepend apiSchemas = ["SkelBindingAPI"]
                    prepend references = @./gear.usda@
                )
                {
                    rel skel:skeleton = </Worker/Body/DHGen/SkelRoot/Skeleton>
                }
            }
        }
    }

    def Capsule "Collider" (
        prepend apiSchemas = ["PhysicsCollisionAPI"]
    )
    {
        uniform token axis = "Z"
        double height = 0.5
        double radius = 0.25
        token visibility = "invisible"
        double3 xformOp:translate = (0, 0.3395622301101685, 0.8480656051635742)
        uniform token[] xformOpOrder = ["xformOp:translate"]
    }
}

