#usda 1.0
(
    defaultPrim = "Worker"
    doc = "WiBotic farm scene worker: man, 43, coverall and work gloves (body: NVIDIA DH character 6c3a2862-07bd-11ef-8ce1-f4b30194174e)"
    metersPerUnit = 1
    upAxis = "Z"
)

def Xform "Worker" (
    prepend apiSchemas = ["PhysicsRigidBodyAPI"]
    kind = "component"
)
{
    custom string farm:description = "man, 43, coverall and work gloves"
    custom double farm:seatHeight = 0.573865487575531
    custom double farm:seatOffsetY = 0.4906171846389771
    custom string farm:workerName = "farm_worker_01"
    bool physics:kinematicEnabled = 1
    float xformOp:rotateZ = 0
    double3 xformOp:translate = (0, 0, 0)
    uniform token[] xformOpOrder = ["xformOp:translate", "xformOp:rotateZ"]

    def Xform "Body" (
        prepend references = @https://omniverse-content-production.s3-us-west-2.amazonaws.com/Assets/Isaac/6.0/Isaac/People/DH_Characters/6c3a2862-07bd-11ef-8ce1-f4b30194174e/6c3a2862-07bd-11ef-8ce1-f4b30194174e.usd@
    )
    {
        def "DHGen"
        {
            def "SkelRoot"
            {
                over "Outfit"
                {
                    over "gar_unisex_vest_highVis_ves002_model_published" (
                        active = false
                    )
                    {
                    }
                }

                def "Skeleton" (
                    prepend apiSchemas = ["SkelBindingAPI"]
                )
                {
                    rel skel:animationSource = </Worker/Body/DHGen/SkelRoot/Skeleton/FarmPose>

                    over "BehaviorAgentOutputPose" (
                        active = false
                    )
                    {
                    }

                    def SkelAnimation "FarmPose"
                    {
                        uniform token[] blendShapes = ["jawOpen", "mouthClose", "mouthFunnel", "mouthPucker", "mouthStretch_L", "mouthStretch_R", "mouthSmile_L", "mouthSmile_R", "mouthLowerDown_L", "mouthLowerDown_R", "mouthUpperUp_L", "mouthUpperUp_R", "browInnerUp_L", "browInnerUp_R", "eyeBlink_L", "eyeBlink_R"]
                        float[] blendShapeWeights = [0, 0, 0, 0, 0, 0, 0, 0, 0, 0, 0, 0, 0, 0, 0, 0]
                        uniform token[] joints = ["Root", "Root/Hips", "Root/Hips/Spine1", "Root/Hips/Spine1/Spine2", "Root/Hips/Spine1/Spine2/Chest", "Root/Hips/Spine1/Spine2/Chest/Neck1", "Root/Hips/Spine1/Spine2/Chest/Neck1/Neck2", "Root/Hips/Spine1/Spine2/Chest/Neck1/Neck2/Head", "Root/Hips/Spine1/Spine2/Chest/Neck1/Neck2/Head/HeadEnd", "Root/Hips/Spine1/Spine2/Chest/Neck1/Neck2/Head/Jaw", "Root/Hips/Spine1/Spine2/Chest/Neck1/Neck2/Head/LeftEye", "Root/Hips/Spine1/Spine2/Chest/Neck1/Neck2/Head/RightEye", "Root/Hips/Spine1/Spine2/Chest/LeftShoulder", "Root/Hips/Spine1/Spine2/Chest/LeftShoulder/LeftArm", "Root/Hips/Spine1/Spine2/Chest/LeftShoulder/LeftArm/LeftForeArm", "Root/Hips/Spine1/Spine2/Chest/LeftShoulder/LeftArm/LeftForeArm/LeftHand", "Root/Hips/Spine1/Spine2/Chest/LeftShoulder/LeftArm/LeftForeArm/LeftHand/LeftHandThumb1", "Root/Hips/Spine1/Spine2/Chest/LeftShoulder/LeftArm/LeftForeArm/LeftHand/LeftHandThumb1/LeftHandThumb2", "Root/Hips/Spine1/Spine2/Chest/LeftShoulder/LeftArm/LeftForeArm/LeftHand/LeftHandThumb1/LeftHandThumb2/LeftHandThumb3", "Root/Hips/Spine1/Spine2/Chest/LeftShoulder/LeftArm/LeftForeArm/LeftHand/LeftHandThumb1/LeftHandThumb2/LeftHandThumb3/LeftHandThumbEnd", "Root/Hips/Spine1/Spine2/Chest/LeftShoulder/LeftArm/LeftForeArm/LeftHand/LeftHandIndex1", "Root/Hips/Spine1/Spine2/Chest/LeftShoulder/LeftArm/LeftForeArm/LeftHand/LeftHandIndex1/LeftHandIndex2", "Root/Hips/Spine1/Spine2/Chest/LeftShoulder/LeftArm/LeftForeArm/LeftHand/LeftHandIndex1/LeftHandIndex2/LeftHandIndex3", "Root/Hips/Spine1/Spine2/Chest/LeftShoulder/LeftArm/LeftForeArm/LeftHand/LeftHandIndex1/LeftHandIndex2/LeftHandIndex3/LeftHandIndex4", "Root/Hips/Spine1/Spine2/Chest/LeftShoulder/LeftArm/LeftForeArm/LeftHand/LeftHandIndex1/LeftHandIndex2/LeftHandIndex3/LeftHandIndex4/LeftHandIndexEnd", "Root/Hips/Spine1/Spine2/Chest/LeftShoulder/LeftArm/LeftForeArm/LeftHand/LeftHandMiddle1", "Root/Hips/Spine1/Spine2/Chest/LeftShoulder/LeftArm/LeftForeArm/LeftHand/LeftHandMiddle1/LeftHandMiddle2", "Root/Hips/Spine1/Spine2/Chest/LeftShoulder/LeftArm/LeftForeArm/LeftHand/LeftHandMiddle1/LeftHandMiddle2/LeftHandMiddle3", "Root/Hips/Spine1/Spine2/Chest/LeftShoulder/LeftArm/LeftForeArm/LeftHand/LeftHandMiddle1/LeftHandMiddle2/LeftHandMiddle3/LeftHandMiddle4", "Root/Hips/Spine1/Spine2/Chest/LeftShoulder/LeftArm/LeftForeArm/LeftHand/LeftHandMiddle1/LeftHandMiddle2/LeftHandMiddle3/LeftHandMiddle4/LeftHandMiddleEnd", "Root/Hips/Spine1/Spine2/Chest/LeftShoulder/LeftArm/LeftForeArm/LeftHand/LeftHandRing1", "Root/Hips/Spine1/Spine2/Chest/LeftShoulder/LeftArm/LeftForeArm/LeftHand/LeftHandRing1/LeftHandRing2", "Root/Hips/Spine1/Spine2/Chest/LeftShoulder/LeftArm/LeftForeArm/LeftHand/LeftHandRing1/LeftHandRing2/LeftHandRing3", "Root/Hips/Spine1/Spine2/Chest/LeftShoulder/LeftArm/LeftForeArm/LeftHand/LeftHandRing1/LeftHandRing2/LeftHandRing3/LeftHandRing4", "Root/Hips/Spine1/Spine2/Chest/LeftShoulder/LeftArm/LeftForeArm/LeftHand/LeftHandRing1/LeftHandRing2/LeftHandRing3/LeftHandRing4/LeftHandRingEnd", "Root/Hips/Spine1/Spine2/Chest/LeftShoulder/LeftArm/LeftForeArm/LeftHand/LeftHandPinky1", "Root/Hips/Spine1/Spine2/Chest/LeftShoulder/LeftArm/LeftForeArm/LeftHand/LeftHandPinky1/LeftHandPinky2", "Root/Hips/Spine1/Spine2/Chest/LeftShoulder/LeftArm/LeftForeArm/LeftHand/LeftHandPinky1/LeftHandPinky2/LeftHandPinky3", "Root/Hips/Spine1/Spine2/Chest/LeftShoulder/LeftArm/LeftForeArm/LeftHand/LeftHandPinky1/LeftHandPinky2/LeftHandPinky3/LeftHandPinky4", "Root/Hips/Spine1/Spine2/Chest/LeftShoulder/LeftArm/LeftForeArm/LeftHand/LeftHandPinky1/LeftHandPinky2/LeftHandPinky3/LeftHandPinky4/LeftHandPinkyEnd", "Root/Hips/Spine1/Spine2/Chest/RightShoulder", "Root/Hips/Spine1/Spine2/Chest/RightShoulder/RightArm", "Root/Hips/Spine1/Spine2/Chest/RightShoulder/RightArm/RightForeArm", "Root/Hips/Spine1/Spine2/Chest/RightShoulder/RightArm/RightForeArm/RightHand", "Root/Hips/Spine1/Spine2/Chest/RightShoulder/RightArm/RightForeArm/RightHand/RightHandThumb1", "Root/Hips/Spine1/Spine2/Chest/RightShoulder/RightArm/RightForeArm/RightHand/RightHandThumb1/RightHandThumb2", "Root/Hips/Spine1/Spine2/Chest/RightShoulder/RightArm/RightForeArm/RightHand/RightHandThumb1/RightHandThumb2/RightHandThumb3", "Root/Hips/Spine1/Spine2/Chest/RightShoulder/RightArm/RightForeArm/RightHand/RightHandThumb1/RightHandThumb2/RightHandThumb3/RightHandThumbEnd", "Root/Hips/Spine1/Spine2/Chest/RightShoulder/RightArm/RightForeArm/RightHand/RightHandIndex1", "Root/Hips/Spine1/Spine2/Chest/RightShoulder/RightArm/RightForeArm/RightHand/RightHandIndex1/RightHandIndex2", "Root/Hips/Spine1/Spine2/Chest/RightShoulder/RightArm/RightForeArm/RightHand/RightHandIndex1/RightHandIndex2/RightHandIndex3", "Root/Hips/Spine1/Spine2/Chest/RightShoulder/RightArm/RightForeArm/RightHand/RightHandIndex1/RightHandIndex2/RightHandIndex3/RightHandIndex4", "Root/Hips/Spine1/Spine2/Chest/RightShoulder/RightArm/RightForeArm/RightHand/RightHandIndex1/RightHandIndex2/RightHandIndex3/RightHandIndex4/RightHandIndexEnd", "Root/Hips/Spine1/Spine2/Chest/RightShoulder/RightArm/RightForeArm/RightHand/RightHandMiddle1", "Root/Hips/Spine1/Spine2/Chest/RightShoulder/RightArm/RightForeArm/RightHand/RightHandMiddle1/RightHandMiddle2", "Root/Hips/Spine1/Spine2/Chest/RightShoulder/RightArm/RightForeArm/RightHand/RightHandMiddle1/RightHandMiddle2/RightHandMiddle3", "Root/Hips/Spine1/Spine2/Chest/RightShoulder/RightArm/RightForeArm/RightHand/RightHandMiddle1/RightHandMiddle2/RightHandMiddle3/RightHandMiddle4", "Root/Hips/Spine1/Spine2/Chest/RightShoulder/RightArm/RightForeArm/RightHand/RightHandMiddle1/RightHandMiddle2/RightHandMiddle3/RightHandMiddle4/RightHandMiddleEnd", "Root/Hips/Spine1/Spine2/Chest/RightShoulder/RightArm/RightForeArm/RightHand/RightHandRing1", "Root/Hips/Spine1/Spine2/Chest/RightShoulder/RightArm/RightForeArm/RightHand/RightHandRing1/RightHandRing2", "Root/Hips/Spine1/Spine2/Chest/RightShoulder/RightArm/RightForeArm/RightHand/RightHandRing1/RightHandRing2/RightHandRing3", "Root/Hips/Spine1/Spine2/Chest/RightShoulder/RightArm/RightForeArm/RightHand/RightHandRing1/RightHandRing2/RightHandRing3/RightHandRing4", "Root/Hips/Spine1/Spine2/Chest/RightShoulder/RightArm/RightForeArm/RightHand/RightHandRing1/RightHandRing2/RightHandRing3/RightHandRing4/RightHandRingEnd", "Root/Hips/Spine1/Spine2/Chest/RightShoulder/RightArm/RightForeArm/RightHand/RightHandPinky1", "Root/Hips/Spine1/Spine2/Chest/RightShoulder/RightArm/RightForeArm/RightHand/RightHandPinky1/RightHandPinky2", "Root/Hips/Spine1/Spine2/Chest/RightShoulder/RightArm/RightForeArm/RightHand/RightHandPinky1/RightHandPinky2/RightHandPinky3", "Root/Hips/Spine1/Spine2/Chest/RightShoulder/RightArm/RightForeArm/RightHand/RightHandPinky1/RightHandPinky2/RightHandPinky3/RightHandPinky4", "Root/Hips/Spine1/Spine2/Chest/RightShoulder/RightArm/RightForeArm/RightHand/RightHandPinky1/RightHandPinky2/RightHandPinky3/RightHandPinky4/RightHandPinkyEnd", "Root/Hips/LeftLeg", "Root/Hips/LeftLeg/LeftShin", "Root/Hips/LeftLeg/LeftShin/LeftFoot", "Root/Hips/LeftLeg/LeftShin/LeftFoot/LeftToeBase", "Root/Hips/LeftLeg/LeftShin/LeftFoot/LeftToeBase/LeftToeEnd", "Root/Hips/RightLeg", "Root/Hips/RightLeg/RightShin", "Root/Hips/RightLeg/RightShin/RightFoot", "Root/Hips/RightLeg/RightShin/RightFoot/RightToeBase", "Root/Hips/RightLeg/RightShin/RightFoot/RightToeBase/RightToeEnd"]
                        quatf[] rotations = [(1, 0, 0, 0), (0.0007473344, 0.707071, 0.0007474285, 0.70714176), (0.9928832, 0.0000059338117, -0.000049652364, -0.119092), (1, -1.8949728e-9, -1.4394817e-10, -0.000068882546), (0.991387, -1.9511244e-9, -3.756397e-9, 0.13096492), (0.9850537, -3.459096e-10, -4.5402926e-9, 0.17224756), (1, 4.280728e-10, -1.2933929e-10, -0.0000106747275), (0.98836875, 1.4041104e-16, -2.518741e-17, -0.15207635), (1, 0, 0, 0), (1, 0, 0, 0), (0.98456675, 0.026693733, 0.004687644, 0.1728982), (0.1729027, 0.004687786, -0.026693825, -0.984566), (0.70563555, 0.12438622, -0.6919783, -0.088162236), (0.7099285, 0.08390183, -0.6873925, 0.12827155), (0.8990236, 0.14566305, -0.051858705, 0.40969446), (0.93009055, 0.3173557, 0.11185227, 0.14732958), (0.7698308, 0.47211024, 0.123176366, 0.4114608), (0.96733594, 1.22997035e-8, -0.19664665, -0.1599728), (0.9770873, 3.2656609e-9, -0.21175411, -0.021461423), (1, -1.3877788e-17, 2.7755576e-17, -2.7755576e-17), (0.98670864, -0.0121662775, 0.16124912, -0.016023478), (0.9861848, -0.00042545493, -0.14817108, -0.07405919), (0.98198795, -0.002120602, -0.1710434, -0.08024538), (0.88052833, 0.0036509556, -0.46462005, -0.09372703), (1, -1.9368096e-7, -1.63758e-15, 5.717648e-15), (0.9800799, 0.0048257853, 0.18826504, -0.063059114), (0.9720931, -0.0010009698, -0.22355752, -0.07110543), (0.9856559, 0.000020088006, -0.16830051, -0.012543926), (0.87971294, -0.0029196916, -0.47311097, -0.04756672), (1, -8.326673e-17, -5.551115e-17, -3.081488e-33), (0.96954083, -0.12489557, 0.18201065, -0.10613092), (0.97637707, 0.14037296, -0.16203023, -0.027007757), (0.9815083, -0.00014800164, -0.19127156, 0.007519629), (0.86413217, 0.0066982224, -0.5011815, 0.045252778), (1, -1.2490009e-16, -5.551115e-17, -4.622232e-33), (0.9746184, -0.102766916, 0.15450975, -0.1252386), (0.9825564, 0.12783119, -0.13486664, -0.0072863996), (0.98696053, -0.0009856453, -0.16086194, 0.005598975), (0.87638664, -0.0075248852, -0.4748269, 0.08018226), (1, -2.9143354e-16, -1.8041124e-16, -8.326673e-17), (0.098662205, 0.69649595, 0.11907215, 0.70070034), (0.66809475, 0.008752239, -0.7279888, 0.15363975), (0.9478887, 0.06284505, -0.025244664, 0.31132025), (0.7888882, 0.565396, -0.02632358, 0.23935285), (0.7692362, 0.47189182, 0.12254397, 0.41300935), (0.8766608, -0.015149555, -0.40691695, -0.25623205), (0.98590344, -0.00070987985, -0.16676368, -0.013555613), (1, 9.7144515e-17, -5.551115e-17, 6.162976e-33), (0.98695964, -0.012087333, 0.1598281, -0.014818786), (0.9805018, -0.0017630334, -0.17917232, -0.08068741), (0.9903329, 0.00033368915, -0.11956083, -0.070326455), (0.97477615, 0.0010073353, -0.2198074, -0.038667247), (1, -1.9368096e-7, -1.355083e-12, 1.6187605e-12), (0.98041797, 0.0047474233, 0.18692602, -0.06177951), (0.96419305, -0.0026440022, -0.25464895, -0.074018314), (0.9932304, -0.0000031283073, -0.11584345, -0.008583604), (0.974404, -0.00080561696, -0.22316153, -0.02711296), (1, 1.4901161e-8, 2.031708e-14, -7.2747364e-14), (0.96989906, -0.1250893, 0.18061861, -0.10500199), (0.9706767, 0.13914412, -0.19371186, -0.03002136), (0.9902985, 0.000023241531, -0.13888551, 0.0044318754), (0.9666843, 0.0018482077, -0.253909, 0.032377563), (1, -1.3877788e-17, 0, 0), (0.9749447, -0.103126034, 0.15313873, -0.12408204), (0.977834, 0.126644, -0.16666108, -0.005104505), (0.9940417, 0.0001551036, -0.10894656, -0.0034250019), (0.97271454, -0.0020763322, -0.2304231, 0.026969438), (1, -9.7144515e-17, -4.1633363e-17, -5.551115e-17), (-0.65350765, -0.0032339054, 0.000028416445, -0.756913), (0.75172037, -0.0012169281, -0.011000007, 0.6593891), (0.82852566, 0.03348162, -0.022569986, -0.5584933), (0.99863434, 0.00036780504, 0.0011361811, -0.052230142), (1, 0, 0, 0), (0.7569127, 0.000034898425, -0.0033076394, -0.6535076), (0.7517205, -0.0012203754, -0.011002916, 0.65938896), (0.8285259, 0.03348223, -0.0225691, -0.558493), (0.99863434, 0.00036780504, 0.0011361811, -0.052230142), (1, 0, 0, 0)]
                        half3[] scales = [(1, 1, 1), (1, 1, 1), (1, 1, 1), (1, 1, 1), (1, 1, 1), (1, 1, 1), (1, 1, 1), (1, 1, 1), (1, 1, 1), (1, 1, 1), (1, 1, 1), (1, 1, 1), (1, 1, 1), (1, 1, 1), (1, 1, 1), (1, 1, 1), (1, 1, 1), (1, 1, 1), (1, 1, 1), (1, 1, 1), (1, 1, 1), (1, 1, 1), (1, 1, 1), (1, 1, 1), (1, 1, 1), (1, 1, 1), (1, 1, 1), (1, 1, 1), (1, 1, 1), (1, 1, 1), (1, 1, 1), (1, 1, 1), (1, 1, 1), (1, 1, 1), (1, 1, 1), (1, 1, 1), (1, 1, 1), (1, 1, 1), (1, 1, 1), (1, 1, 1), (1, 1, 1), (1, 1, 1), (1, 1, 1), (1, 1, 1), (1, 1, 1), (1, 1, 1), (1, 1, 1), (1, 1, 1), (1, 1, 1), (1, 1, 1), (1, 1, 1), (1, 1, 1), (1, 1, 1), (1, 1, 1), (1, 1, 1), (1, 1, 1), (1, 1, 1), (1, 1, 1), (1, 1, 1), (1, 1, 1), (1, 1, 1), (1, 1, 1), (1, 1, 1), (1, 1, 1), (1, 1, 1), (1, 1, 1), (1, 1, 1), (1, 1, 1), (1, 1, 1), (1, 1, 1), (1, 1, 1), (1, 1, 1), (1, 1, 1), (1, 1, 1), (1, 1, 1), (1, 1, 1), (1, 1, 1), (1, 1, 1)]
                        float3[] translations = [(0, 0, 0), (-3.980601e-16, 0.46061718, 0.6838655), (0.052922625, 0.0010192755, 0.0000052922846), (0.07527678, 5.2041704e-18, -1.6714802e-17), (0.07664949, -1.8214596e-17, -8.5098025e-18), (0.27764186, 0, -3.082444e-17), (0.08241891, -5.551115e-17, -1.601309e-17), (0.0689419, 0, -1.3394654e-17), (0.17213544, 0, -3.8221746e-17), (0.0048683323, 0.033840314, 4.554557e-18), (0.03396074, 0.09913598, 0.034840647), (0.033667855, 0.10073213, -0.033307303), (0.24611278, 0.052863576, 0.06693005), (0.16707401, -3.7252903e-8, 1.4363621e-8), (0.30246395, -4.3526255e-10, 5.086768e-8), (0.28261578, -1.3877788e-16, 2.220446e-16), (0.021964023, 0.034044042, 0.0089458395), (0.048999332, 0, 1.110223e-16), (0.029958922, -2.220446e-16, 0), (0.033074044, 0, 0), (0.033148684, 0.02361968, 0.001607037), (0.06587139, -4.1633363e-17, 2.220446e-16), (0.037859485, 6.2450045e-17, -2.220446e-16), (0.024275795, -4.1633363e-17, 2.220446e-16), (0.028812129, 0, 0), (0.032344423, 0.009490501, -0.0038906308), (0.06310802, -4.1633363e-17, 0), (0.047677368, -1.110223e-16, 0), (0.030567044, 2.4286129e-17, 0), (0.02434537, 7.105427e-17, 0), (0.030303648, -0.0037559113, 0.00090231485), (0.061385818, -1.110223e-16, -2.220446e-16), (0.045514528, 4.8572257e-17, -2.220446e-16), (0.027930314, 9.7144515e-17, 0), (0.020146139, 0, -1.4210854e-16), (0.029861297, -0.017005157, 0.0056994543), (0.057212114, 0, 0), (0.032317974, 0, 0), (0.016532537, 4.1633363e-17, 0), (0.019643415, 0, 0), (0.24607058, 0.05261272, -0.06682573), (-0.1668087, -3.7252896e-9, -6.1163092e-9), (-0.30233476, -5.1448146e-10, -2.4341448e-8), (-0.28270996, -1.3877788e-16, -2.220446e-16), (-0.021884818, -0.034277614, -0.009160697), (-0.04902933, -2.220446e-16, -2.220446e-16), (-0.029858153, -4.440892e-16, -1.110223e-16), (-0.033159807, -7.105427e-17, 0), (-0.033101663, -0.023781424, -0.0017185183), (-0.06587955, 2.7755576e-17, 0), (-0.037886474, -1.110223e-16, -2.220446e-16), (-0.024226079, 5.551115e-17, 0), (-0.028800122, 0, 0), (-0.032316428, -0.009568304, 0.0037929914), (-0.06311641, -8.326673e-17, 0), (-0.04772261, -5.89806e-17, 2.220446e-16), (-0.03051744, -1.3877788e-17, -2.220446e-16), (-0.024296716, 0, 1.4210854e-16), (-0.030279439, 0.003698617, -0.0009363618), (-0.061380133, -5.551115e-17, 0), (-0.045550585, -1.0408341e-16, -2.220446e-16), (-0.027897965, -1.2490009e-16, 0), (-0.020112878, 7.105427e-17, 1.4210854e-16), (-0.029846389, 0.016956128, -0.005674944), (-0.05722488, -5.551115e-17, 0), (-0.032316394, 0, -2.220446e-16), (-0.01656195, 0, -2.220446e-16), (-0.019645702, 0, 0), (-0.085378386, 0.021360725, 0.1042215), (0.45178738, -3.7596237e-10, -1.7251258e-8), (0.4427719, -2.0816682e-17, -5.551115e-17), (0.14752486, 8.881784e-18, 0), (0.070706844, 0, 0), (-0.085359775, 0.021120418, -0.10404196), (-0.4518837, -2.5238478e-10, -5.9604645e-8), (-0.44255108, -7.2858386e-17, 2.7755576e-17), (-0.14736113, -3.5527136e-17, -3.5527136e-17), (-0.07071484, -1.7763568e-17, -3.5527136e-17)]
                    }
                }

                def Xform "FarmGear" (
                    prepend apiSchemas = ["SkelBindingAPI"]
                    prepend references = @./gear.usda@
                )
                {
                    rel skel:skeleton = </Worker/Body/DHGen/SkelRoot/Skeleton>
                }
            }
        }
    }

    def Capsule "Collider" (
        prepend apiSchemas = ["PhysicsCollisionAPI"]
    )
    {
        uniform token axis = "Z"
        double height = 0.5
        double radius = 0.25
        token visibility = "invisible"
        double3 xformOp:translate = (0, 0.3906171846389771, 0.923865487575531)
        uniform token[] xformOpOrder = ["xformOp:translate"]
    }
}

